<?xml version="1.0" encoding="utf-8"?><svg viewBox="0 0 53 52" xmlns="http://www.w3.org/2000/svg" xmlns:xlink="http://www.w3.org/1999/xlink"><style>:root>svg{display:none}:root>svg:target{display:block}</style><svg viewBox="0 0 24 24" id="attach" xmlns="http://www.w3.org/2000/svg"><g clip-path="url(#aaa)"><path fill-rule="evenodd" clip-rule="evenodd" d="M18.43 3.935a4.625 4.625 0 0 0-6.54 0l-6.342 6.341a1 1 0 0 1-1.414-1.414l6.342-6.341a6.625 6.625 0 1 1 9.369 9.369l-8.531 8.53a4.75 4.75 0 1 1-6.718-6.717l.004-.004 6.44-6.37.003-.003c1.098-1.096 2.882-1.179 4.029-.032a2.875 2.875 0 0 1 0 4.065l-4.508 4.508a1 1 0 0 1-1.414-1.414l4.508-4.508a.875.875 0 0 0 0-1.237c-.318-.318-.837-.332-1.203.034l-.004.004-6.44 6.371-.002.002a2.75 2.75 0 0 0 3.89 3.887l8.531-8.53a4.625 4.625 0 0 0 0-6.541Z"/></g><defs><clipPath id="aaa"><path d="M0 0h24v24H0z"/></clipPath></defs></svg><svg viewBox="0 0 48 48" id="comfort" xmlns="http://www.w3.org/2000/svg"><g clip-path="url(#aba)"><path d="M38.054 2.09c-6.17-.648-11.716 3.843-12.365 10.012l-1.127 10.723a1.406 1.406 0 0 0 1.252 1.545l.466.05-1.176 11.188c-.54 5.14 3.203 9.763 8.344 10.303 5.14.54 9.763-3.203 10.303-8.344l1.176-11.188.467.05a1.406 1.406 0 0 0 1.545-1.252l1.127-10.723c.648-6.169-3.843-11.716-10.012-12.364Zm-.294 2.797c4.627.486 7.995 4.646 7.509 9.273l-.392 3.73-16.783-1.764.392-3.73c.487-4.627 4.647-7.995 9.274-7.509ZM27.506 21.72l.294-2.797 16.783 1.764-.294 2.797-16.783-1.764Zm13.448 15.553a6.57 6.57 0 0 1-7.212 5.841 6.57 6.57 0 0 1-5.84-7.212l1.175-11.189 13.053 1.372-1.176 11.188Z"/><path d="m32.171 40.122 3.73.392a1.406 1.406 0 0 0 .293-2.797l-3.729-.392a1.406 1.406 0 0 0-.294 2.797ZM9.947 2.09C3.777 2.738-.713 8.285-.065 14.454l1.127 10.722a1.406 1.406 0 0 0 1.545 1.252l.466-.05 1.176 11.19c.54 5.14 5.163 8.883 10.304 8.343 5.141-.54 8.884-5.163 8.344-10.304L21.72 24.42l.466-.05a1.406 1.406 0 0 0 1.251-1.545L22.31 12.103c-.648-6.17-6.195-10.66-12.364-10.012ZM3.712 23.484l-.294-2.797L20.2 18.923l.294 2.797-16.782 1.764ZM20.099 35.9a6.57 6.57 0 0 1-5.84 7.213 6.57 6.57 0 0 1-7.213-5.84L5.87 26.083l13.054-1.371L20.099 35.9Zm-.193-19.776L3.124 17.89l-.392-3.73c-.486-4.627 2.882-8.787 7.51-9.273 4.626-.487 8.786 2.882 9.272 7.51l.392 3.728Z"/><path d="m12.1 40.513 3.73-.392a1.406 1.406 0 0 0-.295-2.797l-3.73.392a1.406 1.406 0 1 0 .295 2.797Z"/></g><defs><clipPath id="aba"><path d="M0 0h48v48H0z"/></clipPath></defs></svg><svg viewBox="0 0 24 24" id="cross" xmlns="http://www.w3.org/2000/svg"><path fill-rule="evenodd" clip-rule="evenodd" d="M4.293 4.293a1 1 0 0 1 1.414 0L12 10.586l6.293-6.293a1 1 0 1 1 1.414 1.414L13.414 12l6.293 6.293a1 1 0 0 1-1.414 1.414L12 13.414l-6.293 6.293a1 1 0 0 1-1.414-1.414L10.586 12 4.293 5.707a1 1 0 0 1 0-1.414Z"/></svg><svg viewBox="0 0 24 24" id="facebook" xmlns="http://www.w3.org/2000/svg"><path d="M17.563 1.005 14.786 1c-3.12 0-5.137 2.125-5.137 5.414v2.497H6.857c-.242 0-.437.2-.437.448v3.617c0 .248.196.449.437.449h2.792v9.126c0 .248.195.449.437.449h3.643a.443.443 0 0 0 .437-.449v-9.126h3.265c.241 0 .436-.2.436-.449l.002-3.617a.456.456 0 0 0-.128-.317.431.431 0 0 0-.31-.131h-3.265V6.794c0-1.017.236-1.533 1.525-1.533h1.871a.444.444 0 0 0 .437-.45V1.454a.443.443 0 0 0-.436-.448Z"/></svg><svg viewBox="0 0 48 48" id="growth" xmlns="http://www.w3.org/2000/svg"><path d="M42.827 15.062h-6.125v-4.718h9.892a1.406 1.406 0 0 0 .95-2.443l-2.729-2.73 2.772-2.77A1.406 1.406 0 0 0 46.592 0H35.295c-.776 0-1.406.63-1.406 1.406v13.656h-1.606a5.178 5.178 0 0 0-5.172 5.172v2.93a5.14 5.14 0 0 0-2.359-.571h-1.506a5.177 5.177 0 0 0-5.172 5.172v2.93a5.143 5.143 0 0 0-2.36-.57H14.21a5.177 5.177 0 0 0-5.172 5.17v2.932a5.135 5.135 0 0 0-2.36-.572H5.173A5.177 5.177 0 0 0 0 42.827v3.765c0 .777.63 1.406 1.406 1.406h45.186c.777 0 1.406-.63 1.406-1.406V20.234a5.178 5.178 0 0 0-5.171-5.172Zm-6.125-12.25h6.495l-1.365 1.365a1.405 1.405 0 0 0 0 1.99l1.365 1.364h-6.495V2.812ZM2.812 42.826c0-1.3 1.059-2.359 2.36-2.359h1.506c1.3 0 2.359 1.059 2.359 2.36v2.359H2.812v-2.36Zm9.038 0v-7.53a2.362 2.362 0 0 1 2.359-2.36h1.506c1.3 0 2.359 1.059 2.359 2.36v9.89h-6.225v-2.36Zm9.036-7.53v-7.531c0-1.301 1.06-2.36 2.36-2.36h1.506c1.3 0 2.36 1.059 2.36 2.36v17.42h-6.226v-9.89Zm24.3 9.89H29.924V20.234a2.362 2.362 0 0 1 2.359-2.36h10.544c1.3 0 2.359 1.059 2.359 2.36v24.952Z"/></svg><svg viewBox="0 0 48 48" id="house" xmlns="http://www.w3.org/2000/svg"><g clip-path="url(#afa)"><path d="M28.922 21.094c-1.957 0-3.657.891-4.922 2.58-1.266-1.689-2.965-2.58-4.922-2.58-3.655 0-6.328 3.004-6.328 6.69 0 4.766 4.619 7.76 10.335 12.659a1.402 1.402 0 0 0 1.83 0c5.723-4.905 10.335-7.895 10.335-12.659 0-3.683-2.67-6.69-6.328-6.69ZM24 37.529c-5.15-4.351-8.438-6.697-8.438-9.745 0-2.21 1.512-3.878 3.516-3.878 2.606 0 3.529 3.06 3.57 3.198a1.407 1.407 0 0 0 2.706-.006c.009-.032.924-3.192 3.568-3.192 2.004 0 3.515 1.667 3.515 3.878 0 3.05-3.291 5.398-8.437 9.745Z"/><path d="M46.593 45.188h-4.218V23.345l.024.017a1.406 1.406 0 0 0 1.944-.299l3.376-4.499a1.41 1.41 0 0 0-.302-1.984L24.83.272a1.406 1.406 0 0 0-1.656-.003l-9.111 6.579V4.22c0-.777-.63-1.407-1.407-1.407H7.031c-.776 0-1.406.63-1.406 1.407v8.72L.583 16.58a1.406 1.406 0 0 0-.301 1.984l3.375 4.499a1.406 1.406 0 0 0 1.944.299l.024-.017v21.843H1.406a1.406 1.406 0 1 0 0 2.813h45.187a1.406 1.406 0 0 0 0-2.813ZM8.437 5.626h2.813v3.253l-2.813 2.03V5.626ZM5.082 20.274l-1.69-2.252L24 3.142l20.61 14.88-1.69 2.252L24.822 7.298a1.406 1.406 0 0 0-1.645 0c-.319.23-17.694 12.688-18.096 12.976Zm3.356 1.054C18.767 13.92 22.587 11.183 24 10.168c1.91 1.37 7.12 5.107 15.563 11.16v23.86H8.436v-23.86Z"/></g><defs><clipPath id="afa"><path d="M0 0h48v48H0z"/></clipPath></defs></svg><svg viewBox="0 0 24 24" id="left-arrow" xmlns="http://www.w3.org/2000/svg"><path fill-rule="evenodd" clip-rule="evenodd" d="M9.207 17.207a1 1 0 0 1-1.414 0l-4.5-4.5a1 1 0 0 1 0-1.414l4.5-4.5a1 1 0 0 1 1.414 1.414L6.414 11H20a1 1 0 1 1 0 2H6.414l2.793 2.793a1 1 0 0 1 0 1.414Z"/></svg><svg viewBox="0 0 20 20" id="linked" xmlns="http://www.w3.org/2000/svg"><path d="m18.328 18.333.005-.001v-6.113c0-2.99-.644-5.293-4.14-5.293-1.68 0-2.808.922-3.269 1.796h-.048V7.205H7.56v11.127h3.451v-5.51c0-1.45.275-2.853 2.072-2.853 1.77 0 1.797 1.655 1.797 2.946v5.418h3.447ZM1.941 7.206h3.456v11.127H1.94V7.206Zm1.726-5.54a2.002 2.002 0 0 0-2.001 2.001c0 1.105.897 2.02 2.001 2.02 1.105 0 2.002-.915 2.002-2.02a2.003 2.003 0 0 0-2.002-2.001Z"/></svg><svg viewBox="0 0 24 24" id="load-more" xmlns="http://www.w3.org/2000/svg"><path fill-rule="evenodd" clip-rule="evenodd" d="M2.1 2a1 1 0 0 1 1 1v4.436A9.999 9.999 0 0 1 12 2c4.355 0 8.058 2.784 9.43 6.667a1 1 0 1 1-1.885.666A8.004 8.004 0 0 0 5.07 8H8.1a1 1 0 1 1 0 2h-6a1 1 0 0 1-1-1V3a1 1 0 0 1 1-1Zm1.077 12.057a1 1 0 0 1 1.276.61A8.004 8.004 0 0 0 18.928 16h-3.03a1 1 0 1 1 0-2h6a1 1 0 0 1 1 1v6a1 1 0 1 1-2 0v-4.436a9.999 9.999 0 0 1-8.9 5.436 10 10 0 0 1-9.43-6.667 1 1 0 0 1 .609-1.276Z"/></svg><svg viewBox="0 0 24 24" id="mess" xmlns="http://www.w3.org/2000/svg"><path d="M12 2C6.478 2 2 6.145 2 11.259c0 2.913 1.454 5.512 3.726 7.21V22l3.405-1.869c.909.252 1.871.388 2.869.388 5.523 0 10-4.145 10-9.259C22 6.146 17.523 2 12 2Zm.994 12.469-2.546-2.716-4.97 2.716 5.467-5.803 2.609 2.716 4.906-2.716-5.466 5.803Z"/></svg><svg viewBox="0 0 24 24" id="minus" xmlns="http://www.w3.org/2000/svg"><path fill-rule="evenodd" clip-rule="evenodd" d="M1 12a1 1 0 0 1 1-1v2a1 1 0 0 1-1-1Zm21 0v1H2v-2h20v1Zm0 0v1a1 1 0 1 0 0-2v1Z"/></svg><svg viewBox="0 0 20 20" id="mute" xmlns="http://www.w3.org/2000/svg"><path fill-rule="evenodd" clip-rule="evenodd" d="M12 15.583c.584.416 1.334.083 1.334-.667v-3.75l-3.084 3.083L12 15.583Zm5.25-11.167a.805.805 0 0 0-1.166 0l-2.75 2.75V5.083c0-.667-.834-1.084-1.334-.667L9.667 6.333c-.333.166-.667.333-1.083.333H6.667C5.75 6.666 5 7.416 5 8.333v3.333c0 .917.75 1.667 1.667 1.667h.5l-2.75 2.75a.806.806 0 0 0 0 1.166.806.806 0 0 0 1.167 0L17.25 5.583a.805.805 0 0 0 0-1.167Z"/></svg><svg viewBox="0 0 19 22" id="play" xmlns="http://www.w3.org/2000/svg"><path d="M18.5 10.134a1 1 0 0 1 0 1.732L2 21.392a1 1 0 0 1-1.5-.866V1.474A1 1 0 0 1 2 .608l16.5 9.526Z"/></svg><svg viewBox="0 0 24 24" id="plus" xmlns="http://www.w3.org/2000/svg"><path fill-rule="evenodd" clip-rule="evenodd" d="M12 1a1 1 0 0 1 1 1v9h9a1 1 0 1 1 0 2h-9v9a1 1 0 1 1-2 0v-9H2a1 1 0 1 1 0-2h9V2a1 1 0 0 1 1-1Z"/></svg><svg viewBox="0 0 48 48" id="quality" xmlns="http://www.w3.org/2000/svg"><path d="M44.017 29.719a4.204 4.204 0 0 0 1.077-2.813 4.224 4.224 0 0 0-4.219-4.218h-8.188c.81-2.461 1.157-5.727 1.157-7.126v-1.406a5.632 5.632 0 0 0-5.625-5.625h-1.407c-.645 0-1.207.439-1.364 1.065l-.765 3.065c-1.074 4.292-4.482 9.027-8.009 9.888a4.225 4.225 0 0 0-3.924-2.674H4.312c-.776 0-1.406.63-1.406 1.406v25.313c0 .776.63 1.406 1.406 1.406h8.438a4.223 4.223 0 0 0 3.808-2.405l4.832 1.61c1.58.528 3.226.795 4.892.795h11.78a4.224 4.224 0 0 0 3.923-5.773 4.227 4.227 0 0 0 3.109-4.07 4.203 4.203 0 0 0-1.077-2.813 4.204 4.204 0 0 0 1.077-2.813 4.203 4.203 0 0 0-1.077-2.812ZM14.157 43.78c0 .776-.632 1.407-1.407 1.407H5.719v-22.5h7.031c.775 0 1.406.63 1.406 1.406V43.78Zm23.905-12.656h2.813a1.407 1.407 0 0 1 0 2.813h-2.813a1.407 1.407 0 0 0 0 2.812h2.813a1.407 1.407 0 0 1 0 2.813h-2.813a1.407 1.407 0 0 0 0 2.812 1.408 1.408 0 0 1 0 2.813h-11.78c-1.363 0-2.71-.219-4.003-.65l-5.31-1.77v-17.4c2.206-.42 4.365-1.816 6.314-4.103 1.903-2.233 3.446-5.193 4.128-7.92l.5-2h.308a2.816 2.816 0 0 1 2.812 2.812v1.406c0 1.888-.59 5.51-1.346 7.126h-2.872a1.407 1.407 0 0 0 0 2.812h14.062a1.407 1.407 0 0 1 0 2.813h-2.813a1.407 1.407 0 0 0 0 2.812Z"/><path d="M9.938 42.375a1.406 1.406 0 1 0 0-2.813 1.406 1.406 0 0 0 0 2.813ZM29.625 0c-.777 0-1.406.63-1.406 1.406v2.907a1.406 1.406 0 0 0 2.812 0V1.405C31.031.63 30.401 0 29.625 0Zm-5.966 6.201L21.67 4.213A1.406 1.406 0 1 0 19.681 6.2l1.99 1.99a1.406 1.406 0 0 0 1.988-1.99Zm15.91-1.988c-.55-.55-1.44-.55-1.989 0L35.592 6.2a1.406 1.406 0 1 0 1.988 1.99l1.99-1.99c.55-.549.55-1.44 0-1.988Z"/></svg><svg viewBox="0 0 16 17" id="reply" xmlns="http://www.w3.org/2000/svg"><path d="m.667 7.828 6.096-6.662v3.975h1.295c4.019 0 7.276 3.247 7.276 7.252v2.106l-.576-.628a10.344 10.344 0 0 0-7.629-3.355h-.366v3.974L.667 7.828Z"/></svg><svg viewBox="0 0 24 24" id="right-arrow" xmlns="http://www.w3.org/2000/svg"><path fill-rule="evenodd" clip-rule="evenodd" d="M14.793 6.793a1 1 0 0 1 1.414 0l4.5 4.5a1 1 0 0 1 0 1.414l-4.5 4.5a1 1 0 0 1-1.414-1.414L17.586 13H4a1 1 0 1 1 0-2h13.586l-2.793-2.793a1 1 0 0 1 0-1.414Z"/></svg><svg viewBox="0 0 48 48" id="safety" xmlns="http://www.w3.org/2000/svg"><g clip-path="url(#ara)"><path d="M7 44H1.5A1.5 1.5 0 0 1 0 42.5v-17A1.5 1.5 0 0 1 1.5 24c7.012 0 10.276 2.434 10.41 2.538a1.5 1.5 0 0 1 .538 1.584l-4 14.772A1.5 1.5 0 0 1 7 44Zm-4-3h2.852l3.396-12.542c-1.046-.494-3.09-1.23-6.248-1.414V41Z"/><path d="M26 48c-4.518 0-12.846-3.458-19.038-6.362a1.5 1.5 0 0 1 1.274-2.718C16.476 42.786 22.952 45 26 45c4.056 0 13.264-4.382 18.09-6.91-.556-.318-1.384-.59-2.59-.59-1.76 0-3.93.72-6.028 1.416-.682.226-1.362.452-2.036.658-1.484.458-3.236.926-4.938.926-4.214 0-9.778-2.004-10.012-2.09a1.499 1.499 0 0 1-.898-1.922 1.503 1.503 0 0 1 1.922-.898c.052.02 5.304 1.91 8.988 1.91 1.312 0 2.858-.424 4.058-.794.652-.2 1.31-.418 1.968-.636 2.324-.772 4.726-1.57 6.972-1.57 4.958 0 6.336 3.302 6.392 3.444a1.5 1.5 0 0 1-.668 1.87C46.62 40.148 32.314 48 26 48Z"/><path d="M33 39.68a1.5 1.5 0 0 1-1.5-1.5v-.9a2.51 2.51 0 0 0-2-2.45l-19.262-3.94a1.5 1.5 0 0 1 .602-2.939l19.262 3.94a5.52 5.52 0 0 1 4.398 5.39v.9A1.5 1.5 0 0 1 33 39.68ZM36 28c-.2 0-.398-.041-.586-.121C34.948 27.681 24 22.915 24 13.107V5.071a1.5 1.5 0 0 1 1.018-1.42L35.518.08c.312-.108.652-.108.964 0l10.5 3.572c.61.206 1.018.776 1.018 1.42v8.036c0 9.808-10.948 14.576-11.414 14.774A1.527 1.527 0 0 1 36 28ZM27 6.144v6.962c0 6.696 6.91 10.682 8.998 11.732C38.082 23.783 45 19.777 45 13.107V6.145l-9-3.062-9 3.062Z"/><path d="M35.5 19c-.397 0-.78-.158-1.06-.44l-4-4a1.5 1.5 0 1 1 2.122-2.122l2.778 2.778L40.3 8.6a1.499 1.499 0 1 1 2.398 1.8l-6 8c-.26.348-.659.566-1.095.596-.034.004-.068.004-.104.004Z"/></g><defs><clipPath id="ara"><path d="M0 0h48v48H0z"/></clipPath></defs></svg><svg viewBox="0 0 48 48" id="salary" xmlns="http://www.w3.org/2000/svg"><g clip-path="url(#asa)"><path d="M29.558 11.341A8.23 8.23 0 0 0 32.25 5.25V1.5A1.5 1.5 0 0 0 30.276.077l-2.748.916a11.231 11.231 0 0 1-7.056 0L17.724.077A1.5 1.5 0 0 0 15.75 1.5v3.75a8.23 8.23 0 0 0 2.692 6.091C10.808 13.715 5.25 20.846 5.25 29.25v12.563A6.194 6.194 0 0 0 11.438 48h25.124a6.194 6.194 0 0 0 6.188-6.188V29.25c0-8.404-5.558-15.535-13.192-17.909ZM18.75 5.25V3.581l.773.258a14.25 14.25 0 0 0 8.954 0l.773-.258V5.25A5.256 5.256 0 0 1 24 10.5a5.256 5.256 0 0 1-5.25-5.25Zm21 36.563A3.191 3.191 0 0 1 36.562 45H11.439a3.191 3.191 0 0 1-3.188-3.188V29.25c0-8.685 7.065-15.75 15.75-15.75 8.685 0 15.75 7.065 15.75 15.75v12.563Z"/><path d="M24 27.75c-1.654 0-3-1.346-3-3s1.346-3 3-3 3 1.346 3 3a1.5 1.5 0 0 0 3 0 6.01 6.01 0 0 0-4.5-5.81V18a1.5 1.5 0 0 0-3 0v.94a6.01 6.01 0 0 0-4.5 5.81c0 3.308 2.692 6 6 6 1.654 0 3 1.346 3 3s-1.346 3-3 3-3-1.346-3-3a1.5 1.5 0 0 0-3 0 6.01 6.01 0 0 0 4.5 5.81v.94a1.5 1.5 0 0 0 3 0v-.94a6.01 6.01 0 0 0 4.5-5.81c0-3.308-2.692-6-6-6Z"/></g><defs><clipPath id="asa"><path d="M0 0h48v48H0z"/></clipPath></defs></svg><svg viewBox="0 0 53 50" id="services-1" xmlns="http://www.w3.org/2000/svg"><path d="M50.977 26.523c.84 0 1.523-.682 1.523-1.523V13.625c0-.841-.682-1.523-1.523-1.523H28.023V2.25c0-.841-.682-1.523-1.523-1.523H10.25c-.841 0-1.523.682-1.523 1.523v9.852H2.023c-.84 0-1.523.682-1.523 1.523V25c0 .841.682 1.523 1.523 1.523h6.704v8.329H2.023c-.84 0-1.523.682-1.523 1.523V47.75c0 .841.682 1.523 1.523 1.523h48.954c.84 0 1.523-.682 1.523-1.523V36.375c0-.841-.682-1.523-1.523-1.523h-6.704v-8.329h6.704Zm-1.524-3.046H36.148v-8.329h13.305v8.329Zm-16.351 0H19.898v-8.329h13.204v8.329ZM11.773 3.773h13.204v8.329H11.773V3.773ZM3.547 23.477v-8.329h13.305v8.329H3.547Zm8.226 3.046h13.204v8.329H11.773v-8.329ZM3.547 37.898h13.305v8.329H3.547v-8.329Zm16.351 0h13.204v8.329H19.898v-8.329Zm29.555 0v8.329H36.148v-8.329h13.305Zm-8.226-3.046H28.023v-8.329h13.204v8.329Z"/></svg><svg viewBox="0 0 53 52" id="services-2" xmlns="http://www.w3.org/2000/svg"><g clip-path="url(#aua)"><path d="M46.406 3.148a6.097 6.097 0 0 0-5.276 3.047H2.023C1.183 6.195.5 6.877.5 7.72v39.61c0 .84.682 1.523 1.523 1.523h44.383a6.1 6.1 0 0 0 6.094-6.094V9.242a6.1 6.1 0 0 0-6.094-6.094Zm0 42.657H3.546V9.242h36.767v33.516a1.523 1.523 0 0 0 3.046 0 3.05 3.05 0 0 1 3.047-3.047 3.05 3.05 0 0 1 3.047 3.047 3.05 3.05 0 0 1-3.047 3.047Zm3.047-8.323a6.057 6.057 0 0 0-3.047-.818c-1.109 0-2.15.298-3.047.818V9.242a3.05 3.05 0 0 1 3.047-3.047 3.05 3.05 0 0 1 3.047 3.047v28.24Z"/><path d="M35.64 12.29H8.22c-.842 0-1.524.681-1.524 1.523v27.421c0 .842.682 1.524 1.524 1.524h15.234a1.523 1.523 0 0 0 1.524-1.524v-3.047a4.578 4.578 0 0 1 3.046-4.309v7.356c0 .842.683 1.524 1.524 1.524h6.094c.841 0 1.523-.682 1.523-1.524V13.812c0-.84-.682-1.523-1.523-1.523Zm-1.523 27.42H31.07v-7.616c0-.842-.682-1.524-1.523-1.524-4.2 0-7.617 3.417-7.617 7.617v1.524H9.742v-9.14h6.094v4.57a1.524 1.524 0 0 0 3.047 0v-6.094c0-.841-.682-1.524-1.524-1.524H9.742V15.336h9.14v6.094h-4.57a1.523 1.523 0 0 0 0 3.047H26.5a1.523 1.523 0 0 0 0-3.047h-4.57v-6.094h12.187V39.71Z"/></g><defs><clipPath id="aua"><path transform="translate(.5)" d="M0 0h52v52H0z"/></clipPath></defs></svg><svg viewBox="0 0 53 52" id="services-3" xmlns="http://www.w3.org/2000/svg"><path d="M49.75 30.95a4.572 4.572 0 0 0 .286-5.005l-6.09-10.65c-1.054-1.825-3.276-2.658-5.258-2.128a4.579 4.579 0 0 0-2.176-4.954L25.958 2.12a4.574 4.574 0 0 0-4.695.076A4.572 4.572 0 0 0 17.359 0H5.07C2.55 0 .5 2.05.5 4.57v42.86C.5 49.95 2.55 52 5.07 52h42.86c2.52 0 4.57-2.05 4.57-4.57V35.14a4.576 4.576 0 0 0-2.75-4.19ZM18.883 47.43c0 .84-.684 1.523-1.524 1.523H5.07c-.84 0-1.523-.683-1.523-1.523V33.617h15.336V47.43Zm0-16.86H3.547V18.281h15.336v12.29Zm0-15.336H3.547V4.57c0-.84.683-1.523 1.523-1.523h12.29c.84 0 1.523.683 1.523 1.523v10.664ZM21.93 6.05l.423-.734a1.526 1.526 0 0 1 2.082-.558l10.554 6.094c.728.42.978 1.354.557 2.083l-1.76 3.06a1.517 1.517 0 0 0-.118.203L21.93 36.603V6.05Zm0 36.663 14.24-24.755 2.945-1.7c.746-.43 1.77-.17 2.188.555l6.09 10.65c.422.73.176 1.665-.561 2.09L21.93 43.972v-1.258Zm27.523 4.717c0 .84-.683 1.523-1.523 1.523H21.668c.162-.458.253-.95.26-1.46l23.967-13.876h2.035c.84 0 1.523.684 1.523 1.524V47.43Z"/></svg><svg viewBox="0 0 53 52" id="services-4" xmlns="http://www.w3.org/2000/svg"><path d="M43.36 4.57c0-2.52-2.05-4.57-4.57-4.57H8.32C5.8 0 3.75 2.05 3.75 4.57v9.14a4.575 4.575 0 0 0 4.57 4.571h30.47c2.52 0 4.57-2.05 4.57-4.57v-1.524h1.523c.84 0 1.523.684 1.523 1.524v6.094c0 .84-.683 1.523-1.523 1.523H26.602c-2.52 0-4.57 2.05-4.57 4.57v4.57h-1.524c-.842 0-1.524.683-1.524 1.524v6.011l-1.523 6.192C16.47 48.157 19.464 52 23.555 52c4.092 0 7.083-3.847 6.095-7.8l-1.525-6.197v-6.01c0-.842-.682-1.524-1.523-1.524h-1.524v-4.57c0-.84.684-1.524 1.524-1.524h18.28c2.52 0 4.571-2.05 4.571-4.57V13.71c0-2.52-2.05-4.57-4.57-4.57h-1.524V4.57ZM25.077 33.516v3.148H22.03v-3.148h3.047Zm-1.523 15.437a3.234 3.234 0 0 1-3.137-4.024l1.284-5.218h3.705l1.285 5.223a3.234 3.234 0 0 1-3.137 4.02ZM8.32 3.047h30.47c.839 0 1.523.683 1.523 1.523v1.524h-4.57c-1.481 0-3.375.554-5.567 1.196-2.961.868-6.317 1.85-9.668 1.85-3.267 0-5.57-.954-7.602-1.795-1.554-.643-3.02-1.251-4.586-1.251H6.797V4.57c0-.84.683-1.523 1.523-1.523ZM40.312 13.71c0 .84-.683 1.523-1.523 1.523H8.32c-.84 0-1.523-.683-1.523-1.523V9.14H8.32c.96 0 2.045.45 3.42 1.019 2.18.903 4.895 2.027 8.768 2.027 3.788 0 7.523-1.094 10.525-1.972 1.885-.553 3.666-1.074 4.71-1.074h4.57v4.57Z"/></svg><svg viewBox="0 0 24 24" id="to-top" xmlns="http://www.w3.org/2000/svg"><path fill-rule="evenodd" clip-rule="evenodd" d="M4.293 15.707a1 1 0 0 1 0-1.414l7-7a1 1 0 0 1 1.414 0l7 7a1 1 0 0 1-1.414 1.414L12 9.414l-6.293 6.293a1 1 0 0 1-1.414 0Z"/></svg><svg viewBox="0 0 48 48" id="training" xmlns="http://www.w3.org/2000/svg"><g clip-path="url(#aya)"><path d="M48 24a9.728 9.728 0 0 0-4.779-8.39 6.39 6.39 0 0 0-.397-4.205 6.38 6.38 0 0 0-3.19-3.181 8.775 8.775 0 0 0-2.426-5.48A8.779 8.779 0 0 0 30.797 0 8.88 8.88 0 0 0 24 3.177 8.88 8.88 0 0 0 17.203 0a8.779 8.779 0 0 0-6.411 2.745 8.774 8.774 0 0 0-2.427 5.479 6.38 6.38 0 0 0-3.19 3.181 6.39 6.39 0 0 0-.396 4.205A9.728 9.728 0 0 0 0 24a9.728 9.728 0 0 0 4.779 8.39 6.39 6.39 0 0 0 .397 4.205 6.38 6.38 0 0 0 3.19 3.181 8.775 8.775 0 0 0 2.426 5.48A8.779 8.779 0 0 0 17.203 48 8.88 8.88 0 0 0 24 44.823 8.88 8.88 0 0 0 30.797 48a8.779 8.779 0 0 0 6.411-2.745 8.775 8.775 0 0 0 2.427-5.479 6.38 6.38 0 0 0 3.19-3.181 6.39 6.39 0 0 0 .396-4.205A9.728 9.728 0 0 0 48 24Zm-6.801 6.281H34.5V26.24h4.969c.776 0 1.406-.63 1.406-1.406V20.72a1.406 1.406 0 0 0-2.813 0v2.707H34.5V20.99a2.816 2.816 0 0 0-2.813-2.813h-2.812a1.406 1.406 0 0 0 0 2.813h2.813v9.292h-6.282V27.75a1.406 1.406 0 0 0-2.813 0v2.531a2.816 2.816 0 0 0 2.813 2.813h15.09a3.59 3.59 0 0 1-.23 2.332 3.577 3.577 0 0 1-2.374 1.991 1.406 1.406 0 0 0-1.056 1.43 6.002 6.002 0 0 1-1.664 4.467 5.992 5.992 0 0 1-4.375 1.873 6.062 6.062 0 0 1-5.39-3.305v-2.976h2.53a1.406 1.406 0 0 0 0-2.812h-2.53a2.816 2.816 0 0 0-2.813 2.812v2.976a6.061 6.061 0 0 1-5.39 3.306 5.991 5.991 0 0 1-4.376-1.874 5.994 5.994 0 0 1-1.574-3.087h3.371a2.816 2.816 0 0 0 2.813-2.813v-1.738h1.218a1.406 1.406 0 1 0 0-2.813h-1.218v-1.738a2.816 2.816 0 0 0-2.813-2.813h-2.438a1.406 1.406 0 0 0 0 2.813h2.438v6.29s-4.513.003-4.517.002a3.577 3.577 0 0 1-2.374-1.99 3.58 3.58 0 0 1 .049-3.102 1.407 1.407 0 0 0-.714-1.925A6.925 6.925 0 0 1 2.813 24a6.925 6.925 0 0 1 4.256-6.4c.041-.018.081-.038.12-.059h2.186v4.219a1.406 1.406 0 1 0 2.812 0v-4.219h5.25v6.844a1.406 1.406 0 1 0 2.813 0v-2.531h1.37a1.406 1.406 0 1 0 0-2.813h-1.37v-1.5a2.816 2.816 0 0 0-2.813-2.812h-.843v-3.76a1.406 1.406 0 1 0-2.813 0v3.76H7.465a3.595 3.595 0 0 1 .27-2.155 3.578 3.578 0 0 1 2.373-1.991 1.406 1.406 0 0 0 1.056-1.43 6.002 6.002 0 0 1 1.664-4.467 5.992 5.992 0 0 1 4.375-1.873 6.06 6.06 0 0 1 5.485 3.498v4.752a2.816 2.816 0 0 0 2.812 2.812H33a1.406 1.406 0 0 0 0-2.813h-.281V9.095a1.406 1.406 0 0 0-2.813 0v1.969H25.5s-.003-5.063-.007-5.11a6.063 6.063 0 0 1 5.304-3.14c1.67 0 3.224.665 4.375 1.873a6.002 6.002 0 0 1 1.665 4.468 1.406 1.406 0 0 0 1.055 1.429c1.054.27 1.92.996 2.374 1.99a3.581 3.581 0 0 1-.049 3.102 1.406 1.406 0 0 0 .714 1.924 6.925 6.925 0 0 1 4.257 6.4 6.924 6.924 0 0 1-3.99 6.281Z"/></g><defs><clipPath id="aya"><path d="M0 0h48v48H0z"/></clipPath></defs></svg><svg viewBox="0 0 24 24" id="twitter" xmlns="http://www.w3.org/2000/svg"><path d="M22.5 5.772a8.902 8.902 0 0 1-2.474.65 4.18 4.18 0 0 0 1.894-2.28 8.922 8.922 0 0 1-2.737 1 4.387 4.387 0 0 0-3.145-1.302c-2.379 0-4.308 1.847-4.308 4.124 0 .323.038.638.112.94-3.58-.173-6.754-1.815-8.879-4.31a3.962 3.962 0 0 0-.583 2.073c0 1.431.762 2.694 1.916 3.433a4.455 4.455 0 0 1-1.95-.518v.052c0 1.997 1.485 3.665 3.454 4.044-.36.093-.741.145-1.135.145a4.31 4.31 0 0 1-.81-.077c.548 1.64 2.138 2.832 4.023 2.865a8.89 8.89 0 0 1-5.35 1.763c-.348 0-.69-.02-1.028-.057a12.572 12.572 0 0 0 6.603 1.856c7.925 0 12.257-6.285 12.257-11.736l-.015-.534a8.412 8.412 0 0 0 2.155-2.13Z"/></svg><svg viewBox="0 0 24 24" id="whats" xmlns="http://www.w3.org/2000/svg"><path d="M22 11.742c0 5.381-4.395 9.743-9.818 9.743a9.835 9.835 0 0 1-4.746-1.212L2 22l1.772-5.227a9.64 9.64 0 0 1-1.409-5.03C2.363 6.361 6.76 2 12.182 2 17.605 2 22 6.362 22 11.742Zm-9.818-8.19c-4.552 0-8.255 3.674-8.255 8.19 0 1.793.584 3.452 1.573 4.803l-1.032 3.042 3.172-1.009a8.25 8.25 0 0 0 4.542 1.355c4.551 0 8.255-3.674 8.255-8.19 0-4.517-3.703-8.191-8.255-8.191Zm4.958 10.434c-.06-.1-.221-.16-.462-.278-.24-.12-1.424-.698-1.644-.777-.22-.08-.382-.12-.542.12-.16.238-.621.776-.762.935-.14.16-.28.18-.522.06-.24-.119-1.015-.371-1.935-1.185-.715-.633-1.198-1.414-1.339-1.653-.14-.24-.014-.368.106-.487.108-.107.24-.279.361-.418.12-.14.16-.24.24-.399.081-.16.041-.298-.02-.418-.06-.12-.541-1.295-.742-1.773-.2-.478-.4-.398-.541-.398-.14 0-.3-.02-.461-.02-.16 0-.422.06-.642.299-.22.239-.842.816-.842 1.991 0 1.175.862 2.31.982 2.47.12.159 1.665 2.649 4.111 3.605 2.447.956 2.447.637 2.889.597.44-.04 1.423-.578 1.625-1.135.2-.558.2-1.036.14-1.136Z"/></svg><svg viewBox="0 0 24 24" id="youtube" xmlns="http://www.w3.org/2000/svg"><path fill-rule="evenodd" clip-rule="evenodd" d="M21.39 4.114a3.007 3.007 0 0 1 2.116 2.115c.514 1.878.494 5.792.494 5.792s0 3.895-.494 5.773a3.007 3.007 0 0 1-2.116 2.115c-1.878.495-9.39.495-9.39.495s-7.493 0-9.39-.514a3.007 3.007 0 0 1-2.116-2.116C0 15.916 0 12.001 0 12.001S0 8.107.494 6.23A3.068 3.068 0 0 1 2.61 4.094C4.488 3.6 12 3.6 12 3.6s7.513 0 9.391.514Zm-5.535 7.888L9.608 15.6V8.404l6.247 3.598Z"/></svg></svg>